<svg xmlns="http://www.w3.org/2000/svg" viewBox="0 0 64 64" fill="none">
  <defs>
    <linearGradient id="g" x1="0" y1="0" x2="64" y2="64" gradientUnits="userSpaceOnUse">
      <stop offset="0" stop-color="#4f46e5"/>
      <stop offset="1" stop-color="#06b6d4"/>
    </linearGradient>
  </defs>
  <path d="M32 6c8.4 0 20 2.9 20 16.3 0 6.5-2.9 9.6-5.3 11.8-2.5 2.2-3.6 6.4-4.3 10.4-.9 5.2-1.6 9.5-4.9 9.5-3 0-4.1-3.6-5.7-8.5-.7-2.2-1.5-4.7-2.3-6.4-.8 1.7-1.6 4.2-2.3 6.4-1.6 4.9-2.7 8.5-5.7 8.5-3.3 0-4-4.3-4.9-9.5-.7-4-1.8-8.2-4.3-10.4C6.9 31.9 4 28.8 4 22.3 4 8.9 15.6 6 24 6h8z" fill="url(#g)"/>
  <path d="M24 14c2.5-1.3 5.5-2 8-2" stroke="#ffffff" stroke-width="2" stroke-linecap="round"/>
</svg>

